%TF.GenerationSoftware,KiCad,Pcbnew,10.0.3*%
%TF.CreationDate,2026-07-12T03:01:21+05:30*%
%TF.ProjectId,rp2354-fido,72703233-3534-42d6-9669-646f2e6b6963,rev?*%
%TF.SameCoordinates,Original*%
%TF.FileFunction,Paste,Top*%
%TF.FilePolarity,Positive*%
%FSLAX46Y46*%
G04 Gerber Fmt 4.6, Leading zero omitted, Abs format (unit mm)*
G04 Created by KiCad (PCBNEW 10.0.3) date 2026-07-12 03:01:21*
%MOMM*%
%LPD*%
G01*
G04 APERTURE LIST*
G04 Aperture macros list*
%AMRoundRect*
0 Rectangle with rounded corners*
0 $1 Rounding radius*
0 $2 $3 $4 $5 $6 $7 $8 $9 X,Y pos of 4 corners*
0 Add a 4 corners polygon primitive as box body*
4,1,4,$2,$3,$4,$5,$6,$7,$8,$9,$2,$3,0*
0 Add four circle primitives for the rounded corners*
1,1,$1+$1,$2,$3*
1,1,$1+$1,$4,$5*
1,1,$1+$1,$6,$7*
1,1,$1+$1,$8,$9*
0 Add four rect primitives between the rounded corners*
20,1,$1+$1,$2,$3,$4,$5,0*
20,1,$1+$1,$4,$5,$6,$7,0*
20,1,$1+$1,$6,$7,$8,$9,0*
20,1,$1+$1,$8,$9,$2,$3,0*%
G04 Aperture macros list end*
%ADD10RoundRect,0.140000X-0.170000X0.140000X-0.170000X-0.140000X0.170000X-0.140000X0.170000X0.140000X0*%
%ADD11RoundRect,0.135000X-0.185000X0.135000X-0.185000X-0.135000X0.185000X-0.135000X0.185000X0.135000X0*%
%ADD12RoundRect,0.140000X-0.140000X-0.170000X0.140000X-0.170000X0.140000X0.170000X-0.140000X0.170000X0*%
%ADD13RoundRect,0.135000X-0.135000X-0.185000X0.135000X-0.185000X0.135000X0.185000X-0.135000X0.185000X0*%
%ADD14R,1.000000X0.750000*%
%ADD15RoundRect,0.135000X0.185000X-0.135000X0.185000X0.135000X-0.185000X0.135000X-0.185000X-0.135000X0*%
%ADD16RoundRect,0.218750X0.381250X-0.218750X0.381250X0.218750X-0.381250X0.218750X-0.381250X-0.218750X0*%
%ADD17RoundRect,0.150000X-0.512500X-0.150000X0.512500X-0.150000X0.512500X0.150000X-0.512500X0.150000X0*%
%ADD18RoundRect,0.135000X0.135000X0.185000X-0.135000X0.185000X-0.135000X-0.185000X0.135000X-0.185000X0*%
%ADD19RoundRect,0.140000X0.170000X-0.140000X0.170000X0.140000X-0.170000X0.140000X-0.170000X-0.140000X0*%
%ADD20RoundRect,0.227500X0.227500X-0.227500X0.227500X0.227500X-0.227500X0.227500X-0.227500X-0.227500X0*%
%ADD21RoundRect,0.050000X0.050000X-0.350000X0.050000X0.350000X-0.050000X0.350000X-0.050000X-0.350000X0*%
%ADD22RoundRect,0.050000X0.350000X-0.050000X0.350000X0.050000X-0.350000X0.050000X-0.350000X-0.050000X0*%
%ADD23R,1.800000X0.400000*%
%ADD24R,2.000000X0.650000*%
%ADD25R,1.200000X1.500000*%
%ADD26R,1.200000X1.200000*%
%ADD27RoundRect,0.250000X-0.650000X0.800000X-0.650000X-0.800000X0.650000X-0.800000X0.650000X0.800000X0*%
%ADD28RoundRect,0.079500X-0.079500X-0.100500X0.079500X-0.100500X0.079500X0.100500X-0.079500X0.100500X0*%
%ADD29RoundRect,0.140000X0.140000X0.170000X-0.140000X0.170000X-0.140000X-0.170000X0.140000X-0.170000X0*%
G04 APERTURE END LIST*
D10*
%TO.C,C2*%
X117089411Y-89290000D03*
X117089411Y-90250000D03*
%TD*%
D11*
%TO.C,R6*%
X112750000Y-75760001D03*
X112750000Y-76779999D03*
%TD*%
D12*
%TO.C,C11*%
X112290000Y-88770000D03*
X113250000Y-88770000D03*
%TD*%
D10*
%TO.C,C7*%
X122750000Y-75290000D03*
X122750000Y-76250000D03*
%TD*%
D12*
%TO.C,C10*%
X112290000Y-87270000D03*
X113250000Y-87270000D03*
%TD*%
%TO.C,C12*%
X112290000Y-90270000D03*
X113250000Y-90270000D03*
%TD*%
D13*
%TO.C,R4*%
X108740000Y-82770000D03*
X109760000Y-82770000D03*
%TD*%
D14*
%TO.C,SW1*%
X131000000Y-90625000D03*
X125000000Y-90625000D03*
X131000000Y-86875000D03*
X125000000Y-86875000D03*
%TD*%
D15*
%TO.C,R1*%
X125250000Y-76759999D03*
X125250000Y-75740001D03*
%TD*%
D16*
%TO.C,L1*%
X112750000Y-80832500D03*
X112750000Y-78707500D03*
%TD*%
D10*
%TO.C,C1*%
X119250000Y-89290000D03*
X119250000Y-90250000D03*
%TD*%
D12*
%TO.C,C17*%
X123270000Y-78250000D03*
X124230000Y-78250000D03*
%TD*%
D17*
%TO.C,U2*%
X107750000Y-77320000D03*
X107750000Y-78270000D03*
X107750000Y-79220000D03*
X110025000Y-79220000D03*
X110025000Y-77320000D03*
%TD*%
D18*
%TO.C,R5*%
X109760000Y-83770000D03*
X108740000Y-83770000D03*
%TD*%
D12*
%TO.C,C6*%
X116270000Y-78770000D03*
X117230000Y-78770000D03*
%TD*%
%TO.C,C8*%
X120770000Y-76770000D03*
X121730000Y-76770000D03*
%TD*%
D19*
%TO.C,C4*%
X115250000Y-77750000D03*
X115250000Y-76790000D03*
%TD*%
D20*
%TO.C,U1*%
X117620000Y-84894796D03*
X118750000Y-84894796D03*
X119880000Y-84894796D03*
X117620000Y-83764796D03*
X118750000Y-83764796D03*
X119880000Y-83764796D03*
X117620000Y-82634796D03*
X118750000Y-82634796D03*
X119880000Y-82634796D03*
D21*
X115950000Y-87214795D03*
X116350000Y-87214796D03*
X116750000Y-87214796D03*
X117150000Y-87214796D03*
X117549999Y-87214796D03*
X117950000Y-87214796D03*
X118350000Y-87214796D03*
X118750000Y-87214795D03*
X119150000Y-87214796D03*
X119550000Y-87214796D03*
X119950001Y-87214796D03*
X120350000Y-87214796D03*
X120750000Y-87214796D03*
X121150000Y-87214796D03*
X121550000Y-87214795D03*
D22*
X122199999Y-86564796D03*
X122200000Y-86164796D03*
X122200000Y-85764796D03*
X122200000Y-85364796D03*
X122200000Y-84964797D03*
X122200000Y-84564796D03*
X122200000Y-84164796D03*
X122199999Y-83764796D03*
X122200000Y-83364796D03*
X122200000Y-82964796D03*
X122200000Y-82564795D03*
X122200000Y-82164796D03*
X122200000Y-81764796D03*
X122200000Y-81364796D03*
X122199999Y-80964796D03*
D21*
X121550000Y-80314797D03*
X121150000Y-80314796D03*
X120750000Y-80314796D03*
X120350000Y-80314796D03*
X119950001Y-80314796D03*
X119550000Y-80314796D03*
X119150000Y-80314796D03*
X118750000Y-80314797D03*
X118350000Y-80314796D03*
X117950000Y-80314796D03*
X117549999Y-80314796D03*
X117150000Y-80314796D03*
X116750000Y-80314796D03*
X116350000Y-80314796D03*
X115950000Y-80314797D03*
D22*
X115300001Y-80964796D03*
X115300000Y-81364796D03*
X115300000Y-81764796D03*
X115300000Y-82164796D03*
X115300000Y-82564795D03*
X115300000Y-82964796D03*
X115300000Y-83364796D03*
X115300001Y-83764796D03*
X115300000Y-84164796D03*
X115300000Y-84564796D03*
X115300000Y-84964797D03*
X115300000Y-85364796D03*
X115300000Y-85764796D03*
X115300000Y-86164796D03*
X115300001Y-86564796D03*
%TD*%
D17*
%TO.C,U3*%
X103975000Y-81870002D03*
X103975000Y-82820001D03*
X103975000Y-83770000D03*
X106250000Y-83770000D03*
X106250000Y-82820001D03*
X106250000Y-81870002D03*
%TD*%
D23*
%TO.C,J1*%
X101000000Y-86050000D03*
X101000000Y-84550000D03*
X101000000Y-84050000D03*
X101000000Y-83550000D03*
X101000000Y-83050000D03*
X101000000Y-81550000D03*
X101000000Y-81050000D03*
X101000000Y-80550000D03*
X101000000Y-82050000D03*
X101000000Y-82550000D03*
X101000000Y-85050000D03*
X101000000Y-85550000D03*
D24*
X100900000Y-79900000D03*
X100900000Y-86700000D03*
D25*
X99100000Y-78750000D03*
D26*
X98250000Y-82000000D03*
X98250000Y-84600000D03*
D25*
X99100000Y-87850000D03*
X96500000Y-78750000D03*
D26*
X96500000Y-81500000D03*
X96500000Y-85100000D03*
D25*
X96500000Y-87850000D03*
%TD*%
D10*
%TO.C,C16*%
X131900000Y-84270000D03*
X131900000Y-85230000D03*
%TD*%
D15*
%TO.C,R9*%
X125000000Y-84790000D03*
X125000000Y-83770000D03*
%TD*%
D12*
%TO.C,C9*%
X112270000Y-85770000D03*
X113230000Y-85770000D03*
%TD*%
D15*
%TO.C,R3*%
X119250000Y-78280000D03*
X119250000Y-77260000D03*
%TD*%
D18*
%TO.C,R7*%
X97500000Y-90250000D03*
X96480000Y-90250000D03*
%TD*%
D10*
%TO.C,C15*%
X104000000Y-78020000D03*
X104000000Y-78980000D03*
%TD*%
D27*
%TO.C,Y1*%
X126950000Y-81350000D03*
X126950000Y-84250000D03*
X129250000Y-84250000D03*
X129250000Y-81350000D03*
%TD*%
D19*
%TO.C,C13*%
X110270000Y-86730000D03*
X110270000Y-85770000D03*
%TD*%
D28*
%TO.C,D1*%
X118335000Y-75500000D03*
X119025000Y-75500000D03*
%TD*%
D13*
%TO.C,R8*%
X99490000Y-90250000D03*
X100510000Y-90250000D03*
%TD*%
D19*
%TO.C,C14*%
X110250000Y-89250000D03*
X110250000Y-88290000D03*
%TD*%
D29*
%TO.C,C5*%
X121580000Y-78270000D03*
X120620000Y-78270000D03*
%TD*%
D11*
%TO.C,R2*%
X131500000Y-80490000D03*
X131500000Y-81510000D03*
%TD*%
D10*
%TO.C,C3*%
X118089411Y-89290000D03*
X118089411Y-90250000D03*
%TD*%
M02*
