M48
; DRILL file KiCad 10.0.3 date 2026-07-12T03:01:21
; FORMAT={-:-/ absolute / inch / decimal}
; #@! TF.CreationDate,2026-07-12T03:01:21+05:30
; #@! TF.GenerationSoftware,Kicad,Pcbnew,10.0.3
; #@! TF.FileFunction,Plated,1,2,PTH
FMAT,2
INCH
; #@! TA.AperFunction,Plated,PTH,ViaDrill
T1C0.0118
; #@! TA.AperFunction,Plated,PTH,ComponentDrill
T2C0.0256
%
G90
G05
T1
X3.878Y-3.5433
X4.0059Y-3.5728
X4.0453Y-3.1693
X4.1083Y-3.3563
X4.1339Y-3.4055
X4.1436Y-3.2634
X4.1831Y-3.1004
X4.2224Y-3.1693
X4.2421Y-3.5925
X4.3602Y-3.3366
X4.4587Y-3.3372
X4.4626Y-3.2264
X4.4783Y-3.5925
X4.498Y-3.3563
X4.502Y-3.1398
X4.5177Y-2.9823
X4.5374Y-3.4941
X4.5433Y-3.0937
X4.5571Y-3.5531
X4.5768Y-3.0413
X4.6358Y-3.0413
X4.6358Y-3.2579
X4.6358Y-3.2972
X4.6358Y-3.3366
X4.6673Y-3.1201
X4.6752Y-3.2579
X4.6752Y-3.2978
X4.6752Y-3.3366
X4.6752Y-3.4744
X4.7146Y-3.1201
X4.7244Y-3.2579
X4.7244Y-3.2972
X4.7244Y-3.3366
X4.7933Y-3.5925
X4.8327Y-3.0413
X4.8524Y-3.2185
X4.8622Y-3.4055
X4.8819Y-3.2874
X4.8921Y-3.022
X4.9044Y-3.2019
X4.9311Y-3.2244
X4.9803Y-2.9823
X5.1575Y-3.3563
X5.2067Y-3.5138
T2
X5.0476Y-3.0118
X5.0976Y-3.0118
X5.1476Y-3.0118
M30
